<?xml version="1.0"?>
<svg id="Capa_1" data-name="Capa 1" xmlns="http://www.w3.org/2000/svg" viewBox="0 0 288.45 221.67">
  <defs>
    
  </defs>
  <g id="_5WmPQz" data-name="5WmPQz">
    <g>
      <path class="cls-1" d="M48.04,36.66c-4.26,12.11-16.34,17.64-28.81,15.16-8.4-1.67-15.04-7.63-17.69-15.84-2.05-6.34-2.05-13.21-.03-19.56C4.39,7.33,12.24,1.11,21.66.17c2.26-.23,4.33-.23,6.6,0,9.53.97,17.37,7.33,20.15,16.58,1.95,6.48,1.88,13.52-.37,19.91ZM43.81,36.32c4.22-11.64,1.06-27.7-11.4-31.66-4.78-1.52-9.86-1.53-14.67-.09C4.98,8.38,1.7,24.57,6.03,36.44c2.08,5.68,6.53,10.03,12.36,11.57,10.58,2.8,21.51-.91,25.41-11.68Z"></path>
      <path class="cls-1" d="M35.25,38.5h-5.32s-4.7-9.3-4.7-9.3h-4.58s-.01,9.36-.01,9.36l-4.98-.05V12.9s10.48.03,10.48.03c2.21,0,4.27.85,5.86,2.22,3.21,3.85,2.41,10.22-2.43,12.64l5.66,10.71ZM28.67,20.87c.05-2.22-1.32-3.97-3.58-3.99l-4.43-.04v7.84s4.44-.03,4.44-.03c2.18-.01,3.52-1.6,3.57-3.8Z"></path>
    </g>
  </g>
  <g>
    <path class="cls-1" d="M206.2,27.76c2.42.26,4.8,1.17,6.47,3.04,3.71,4.14,3.15,10.03,1.23,15.05-1.1,2.88-2.52,5.51-4.1,8.15-.85,1.41-2.03,3.57-1.37,4.58.54.83,2.34.81,3.61.52l6.6-1.5c5.57-1.26,11.02-2.34,16.72-3.01,14.12-1.68,27.78-.8,41.05,4.4,4.11,1.61,8.49,4.13,10.86,7.84,1.5,2.35,1.58,5.21.26,7.67-1.96,3.63-6.31,6.25-10.11,7.99-19.99,9.13-41.86,13.53-63.83,12.96l-6.46-.04c-1.97-.01-3.86.33-5.73.84-2.72.74-4.85,2.31-6.58,4.5l-4.22,6.23c-1.61,2.38-2.98,4.78-4.81,6.99-1.66,2.01-3.58,3.65-5.45,5.46l-3.72,3.61c-.22.21-.34.82-.23,1.05s.58.58.87.6l4.75.35c2.82.21,5.53.44,8.3,1.07,8.24,1.88,15.47,7.35,17.35,15.86l.93,5.21.74,3.72c.64,2.5,2.58,4.14,5.12,4.62,2.62.5,5.24.44,7.92.63l4.65.33,5.7-.29c7.46-.39,16.65.18,23.05,4.19,1.76,1.1,3.19,2.6,4.3,4.35,1.25,1.98,1.74,4.2,1.41,6.52-.19,1.32.13,2.75-.2,4.06-.68,2.73-2.32,5.05-4.23,7.07-4.1,4.33-10.26,6.82-16.08,8-4.29.87-8.48,1.44-12.85,1.65l-16.05.77-5.56-.26h-.51c-.09,0,0-.18.08-.22.05-.02.25-.07.36-.08l3.66-.44,7.2.27c4.09-.13,8.01-.44,12.18-1.06.4.03.04-.04-.21-.1-1.46-.34-2.9-.43-4.34-.14-.04,0-.3-.04-.33-.02l-1.01.48-6.44-.09-9.19.14-2.02.07-2.08.14-.51.06c-.06,0,.16.28.21.3l1.06.45c.31-.1.49-.01.21.13l-5.56-.71,3.62-.29,3-.28,1.94-.17,19.47-1.86c4-.38,7.77-1.14,11.64-2.11,2.41-.6,4.59-1.43,6.86-2.4,4.74-2.03,8.94-4.41,11.46-9.01,1.58-2.87,1.24-6.17-.97-8.61-1.08-1.19-2.4-2.01-3.9-2.67l-4.6-1.35c-.64-.94-1.54-1.47-2.71-1.5-3.2-.28-6.32-.18-9.55,0l-9.86.55-4.51-.52-4.46-.54c-2.11-.03-4.09-.2-6.07-.89-3.37-1.16-5.94-3.58-7.13-6.94l-2.37-6.71c.12,2.84.75,5.51,1.77,8.09,1.28,3.23,3.76,5.63,6.93,6.95,1.97.82,3.98,1.31,6.14,1.3l11.34-.09,1.8-.1,2.32-.13,3.87-.15,3.9-.08.08.13-3.13.08-1.66.09-1.94.12-2.38.15-2.39.15-3.46.19-8.36.02c-6.16.01-12.33-3.77-13.89-9.91l-.63-2.49-1.22-6.71c-.48-2.62-1.74-4.84-3.72-6.6-4.8-4.28-10.42-4.45-16.56-4.75l-4.77-.23c-2.69-.29-5.18-1.23-7.37-2.76-1.28-.9-1.94-2.22-1.93-3.79.02-2.65.9-5.12,2.49-7.23l2.92-3.21,5.29-5.31c1.18-1.18,2.15-2.45,3-3.89l3.38-5.74c3.19-5.43,6.4-10.13,12.32-12.79,2.52-1.13,5.09-1.83,7.85-2.16,2.8-.34,5.5-.47,8.37-.36,21.2.78,42.25-3.53,61.38-12.68l2.26-1.24c.08-.05.14-.36.07-.39l-.26-.12-4.61-1.83c-7.13-2.32-14.43-3.31-21.95-3.19-9.36.16-18.74,1.8-27.77,4.12l-6.91,1.77c-4.44,1.14-9.28,1.87-13.51.05-3.49-1.5-5.85-4.59-6.31-8.37-.48-3.96,1.08-8.15,2.96-11.68l4.42-8.3c.08-.15-.03-.62-.17-.7-.12-.07-.45-.12-.58-.04l-1.38.87-5.99,5.37-6.5,6.06c-4.67,3.99-10.11,6.68-16.14,7.93-3.11.64-6.11,1.02-9.29,1.13l-12.45.45c-7.09.26-14.02,1.04-21.02,2.29-6.87,1.23-13.48,3.03-19.95,5.59-4.23,1.67-8.13,3.85-11.45,6.93-2.36,2.18-5.08,5.51-4.34,8.64.35,1.47,1.69,2.52,3.04,3.02,3.82,1.43,8.84,1.06,12.99.46,5.43-.77,10.65-1.8,16.02-2.95,6.14-1.32,12.11-2.75,18.14-4.54-.94-.41-1.72-.02-2.75-.17,4.08-.66,8.92-1.01,12.91,1.01,4.76,2.42,4.3,7.83,2.19,12.39-2.61,5.61-7.72,10.66-12.32,14.87-2.89,2.64-5.99,5.38-7.75,8.82-1.07,2.09-.73,4.42.71,6.24,2.53,3.18,5.94,4.26,8.55,7.58.29.37.46,1.07.36,1.5-.24,1.01-2.18,1.34-3.63,1.37-2.98.07-5.77-.7-8.5-1.86,1.8,3.12,4.26,6.01,7.28,7.57.95.33,2.21.57,3.08,1.19l2.24,1.6c-6.14-1.74-11.71-5.08-13.91-11.12-4.75-2.85-7.9-7.86-7.45-13.41l.59-3.27c1.56-5.69,5.63-10.22,9.78-14.28,2.22-2.17,4.33-4.28,6.35-6.72l-19.85,4.13c-4.29.89-8.43,1.62-12.77,2.19-3.58.47-7.03.57-10.61.24-5.79-.54-11.58-2.91-14.99-7.72-.63-.89-1.32-1.85-1.74-2.86-2.13-5.08-1.78-10.61.55-15.58,3.52-7.52,11.32-13.51,18.81-16.9,5.25-2.37,10.61-4.09,16.21-5.48,12.66-3.14,26.14-4.03,39.16-4.15,7.22-.06,14.62.07,20.79-3.91,2.15-1.39,3.95-3.05,5.78-4.83l6.96-6.78c2.29-2.24,4.86-3.97,7.7-5.46,2.35-1.24,4.77-2.06,7.35-2.33h2.96ZM202.9,134.51c-2.44-4.01-6.45-6.56-10.92-7.39,4.12,1.84,7.82,4.3,10.92,7.39Z"></path>
    <path class="cls-1" d="M46.03,210.64v-2.99c.59-5.52,3.46-10.62,7.05-14.87,5.75-6.8,11.85-13.2,18.53-19.12,4.13-3.66,8.31-7.14,12.64-10.55.5-.16,1.1-.28,1.44-.63l1.92-1.97,6.41-4.96c.69-.54,1.75-.05,2.04-1.54l13.01-9.84,1.93-.56-.82,1.2c-1.08.21-2.08.59-2.84,1.35l-1.93,1.95c.45.05.84.04,1.14-.06.21-.08.59-.53.17-.83,1.88-.72,3.57-1.76,5.34-3.14-.31-.23-.58-.32-1.14-.49l2.07-.36v.17s-1.09,1.07-1.09,1.07c-3.09,2.99-5.88,6.13-8.65,9.43-.43.51-1.16.92-1.73,1.25l-3.64,2.08c-1.13.65-2.19,3.77-3.72,5.26l-1.17-.38-1.71,2.26c-.75.99-1.52,1.95-2.48,2.75l-2.25.6c-1.06,1.58-2.38,3.17-2.69,5.19l8.17-7.92c-2.36,2.92-4.83,5.41-7.53,7.83l-3.57,2.87c-1.35,1.08-2.79,2.09-3.8,3.51l-3.74,5.23c-1.55,2.17-3.01,4.27-4.82,6.25-2.98,3.27-5.85,6.47-8.48,10.04-1.62,2.2-3.24,5.81-2.97,8.56,3.85,1.34,10.03-1.53,13.45-3.75,2.18-1.42,3.92-3.2,5.91-4.85,2.7-2.24,5.21-4.48,7.5-7.14l6.57-7.62c2.15-2.49,4.28-4.83,6.67-7.07,2.65-2.47,5.55-4.23,8.82-5.71,5.52-2.5,11.44-10.22,10.21-10.2h-.67s5.67-4.77,5.67-4.77l4.29-3.92c1.68-1.54,3.79-2.27,6.03-2.57l.18-1.44c-.63-.24-.74-.91-.41-1.38l.38-.53.83,3.28c2.64.25,4.79,1.91,4.41,4.56-.19,1.32-.53,2.95-1.46,4.03l-8.21,9.58c-2.81,3.28-5.65,6.47-8.99,9.24-4.23,3.5-8.38,6.86-12.27,10.75l-7.25,7.26-11.2,11.22c-6.31,6.32-16.38,12.74-25.36,13.47l-3.95-.02c-6.38-.57-11.65-4.55-12.27-11.01ZM77.08,170.28c-1.39.19-2.62.89-3.32,2.21,1.26-.4,2.39-1.13,3.32-2.21Z"></path>
    <path class="cls-1" d="M217.04,188.69l-11.26,1.37c-1.31.16-2.63-.13-3.91-.3l-4.31-.58c-6.09-.31-12.77-.55-17.67-4.34-.45-.35-.87-.91-.94-1.4l-.19-1.35c2.94,3.24,7.3,5.03,11.6,5.72,3.15.51,6.23.73,9.45.57l10.32-.5,11.05-.61c.75-.03,1.38-.17,2.21.16l-6.34,1.25Z"></path>
    <path class="cls-1" d="M114.11,146.59c-1.71,1.17-3.03,2.63-4.88,3.86.41-2.04,1.89-3.48,3.11-4.97l2.27-.24,3.12-2.43,1.62-1.19,1.03.81-1.96,1.21-4.31,2.95Z"></path>
    <path class="cls-1" d="M176.78,176.21l.23,2.48c-.64-2.22-.8-4.51-.69-6.9l.45-9.4c.12-2.63-.48-5-1.69-7.34.3.24.55.61.73.97,1.15,2.3,1.65,4.79,1.68,7.41l-.39,6.42-.32,6.36Z"></path>
    <path class="cls-1" d="M126.01,141.99l-1.61-.67c-1.19-.06-2.09.19-3.32.57l1.77-1.2,1.83-.14c.53.48.9.82,1.33,1.43Z"></path>
    <path class="cls-1" d="M173.22,166.6l-.62,2.08.64-6.32c.44,1.36.43,2.82-.03,4.24Z"></path>
    <polygon class="cls-1" points="173.9 184.25 172.73 182.11 173.1 181.64 173.9 184.25"></polygon>
    <path class="cls-1" d="M126.59,137.48c-.89.33-1.7,0-2.11-.71.89.18,1.49.41,2.11.71Z"></path>
    <path class="cls-1" d="M177.78,188.49c-.82-.34-1.6-1.01-2.08-1.92l2.08,1.92Z"></path>
  </g>
</svg>