<?xml version="1.0"?>
<svg id="Capa_1" data-name="Capa 1" xmlns="http://www.w3.org/2000/svg" viewBox="0 0 943.21 259.56">
  <defs>
    
  </defs>
  <g>
    <path class="cls-2" d="M157.39,252.59c-11.13-5.64-18.89-11.34-24.47-22.31l-5.51-10.83c-6.6-7.22-12.2-15.51-12.58-25.51l6.43-11.9c1.97-3.64,7.98-9.31,11.94-12.46,8.09-6.43,21.29-7.89,30.83-2.95,18.04,9.34,10.64,35.77,17.66,39.45,11.18,5.86,20.07-.34,28.04-6.95,13.06-10.83,20.81-27.29,24.29-44.14,1.28-6.21-2.14-17.91-9.63-18.24l-29.45-1.28c-2.97-.13-9.26-3.62-12.18-4.22l-20.46-4.2c-20.81-4.27-37.34-11.09-38.09-33.5-.27-7.98,2.27-21.97,6.5-29.91,10.16-19.06,24.87-34.74,44.01-43.07,29.75-12.95,42.97-10.52,72.28-10.08l16.6.25c11.4,2.09,19.05,5.67,28.26,13.14,5.05,22.65-7.28,42.27-29.47,47.1-25.78,5.61-35.75-19.13-62.58-17.21-5.6.4-14.46,4.5-17.87,8.17-5.52,5.92-7.96,17.18-3.62,23.17l6.88,9.48,22.41,8.26c3.49,1.29,11.27,2.02,15.65,2.46,8.17.81,15.18,3.09,22.45,5.12,10.37,2.89,16.4,5.89,20.51,16.2,2.57,6.44,3.89,14.04,1.52,21.71-3.41,11.01-5.36,23.26-10.08,33.58-8.74,19.13-23.7,39.87-39.06,54.3-4.38,4.11-10.01,7.35-14.64,10.81-8.07,6.02-15.94,8.18-25.97,9.74-8.3,1.29-12.81-.23-20.62-4.18Z"></path>
    <path class="cls-2" d="M481.18,201.05c12.55-12.51,27.88-22.04,33.7-38.38l6.42-18.05,5.23-16.57,3.49-22.56c4.85-9.87,4.89-19.92,3.1-30.62-2.19-13.17.12-27.43,11.31-35.88,11.39-8.6,40.97,8.41,44.09,41.36.99,10.43,2.49,20.73,5.95,30.22l9.7,26.59c2.35.74,12.59.1,14.6-3.47l11.63-20.64c9.27-16.46,12.43-25.44,14.09-44.31.79-8.94,4.41-17.39,7.7-25.62,2.86-7.16,8.93-9.87,14.67-14.18,14.27-10.74,34.1-11.49,44.33,4.04,4.36,8.76,6.51,18.1.31,25.72-.36,9.28-4.82,15.98-9.38,23.18-4.51,7.13-9.63,14.21-16.68,19.3-10.22,7.38-19.05,15.03-25.73,26.25-9.13,15.34-19.76,32.18-21.7,49.89l-2.52,23c-1.13,10.3-15.42,23.6-31.99,18.78-12.49-3.63-15.64-23.64-15.13-40.17.36-11.72-6.7-23.64-10.79-34.74-1.42-3.86-3.27-8.06-5.37-10.5s-10.01-2.7-12.19-.8l-7.29,21.44c-5.87,17.27-9.5,32.93-9.75,51.04-.3,21.7-19.74,41.74-42.51,40.84-6.43-.25-16.51-6.93-19.55-12.19-5.26-9.1-3.96-23.36.24-32.95Z"></path>
    <path class="cls-2" d="M474.38,160.18c-7.15-6.82-15.52-4.35-23.49-2.62-13.33,2.88-27.17,7.93-33,21.95l-4.1,16.68c2.42,21.08-11.83,39.18-33.63,40.22-8.1,1.76-15.13-2.76-21.17-9.8-3.03-4.25-6.83-14.87-2.71-21.03l11.48-17.2,17.41-27.09c4.25-6.61-3.21-17.71-.57-23.63,1.06-2.38,5.25-5.36,8.12-6.54l17.85-7.4,23.83-33.31c8.67-12.12,17.43-25.34,24.21-38.4,5.51-10.63,10.62-16.82,24.58-17.19,4.94-.13,14.6-3.15,19.24.35,5.75,4.34,7.68,10.28,6.57,16.17,4.09,11.74,2.54,23.82-1.52,35.84,1.48,13.24,4.02,26.71,2.62,39.86-.94,8.85-1.1,15.96-.21,24.85,1.08,10.9.15,24.36,6.38,33.32l13.39,19.24c5.23,7.52,1.48,24.79-7.98,33.19-9.84,8.73-20.81,10.92-32.4,5.48-19.72-9.25-17.18-25.75-15.92-46.72l1-16.65c.35-5.78,2-14.77.03-19.57ZM476.48,115.69l.86-13.14c.37-5.69.6-8.61-6.22-10.52-2.82-.79-6.51,2.77-8.5,6.24l-12.58,21.98c10.05,4.04,19.81,2.07,26.44-4.56Z"></path>
    <path class="cls-2" d="M325.26,223.3c-2.01,7.79-4.33,12.36-4.29,19.66.03,5.27-7.24,13.58-12.46,15.82-6.56,2.82-15.99-2.58-17.33-7.42-7.2-25.87,5.74-40.09,8.38-65.56l1.76-16.94c.6-5.8.49-12.33,1.47-17.94l1.47-8.34c2.33-6.77,4.15-11.22,1.58-17.29s-7.41-7.52-15.51-8.77c-5.85-.91-13.28-8.05-14.24-13.59-3.34-19.17,8.03-34.13,27.27-36.5,10.02-1.24,22.54-1.26,29.36-11.7,1.24-7.1.28-17.86.44-25.55,3.49-14.14,9.76-21.59,23.4-28.63,2.72-1.4,9.53.26,12.55,1.22,13.78,4.37,20.31,16.87,16.15,30.37l-6.4,20.77c-1.74,5.65,6.18,10.59,10.9,12.2l11.75,4c8.51,2.9,14.77,6.67,15.26,15.49.65,11.82-13.11,18.29-27.04,19.08l-15.73.89c-9.6.55-16.89,3.68-23.52,10.74-1.61,1.71-5.32,5.42-5.71,7.59-2.42,13.29-6,26.19-7.42,39.04l-2.46,22.26c-.53,4.84-1.6,8.07-2.85,12.93l-6.74,26.17Z"></path>
  </g>
  <text class="cls-1" transform="translate(0 107.13)"><tspan class="cls-3" x="0" y="0"> </tspan><tspan class="cls-6" x="15.58" y="0">W</tspan><tspan class="cls-3" x="58.11" y="0">e</tspan></text>
  <text class="cls-1" transform="translate(680.6 183.3)"><tspan class="cls-7" x="0" y="0">f</tspan><tspan class="cls-3" x="11.93" y="0">or the vision</tspan></text>
  <g id="_5WmPQz" data-name="5WmPQz">
    <g>
      <path class="cls-4" d="M780.27,51.18c-2.94,8.34-11.26,12.16-19.85,10.45-5.79-1.15-10.36-5.26-12.19-10.92-1.41-4.37-1.41-9.1-.02-13.48,1.99-6.27,7.39-10.56,13.89-11.2,1.56-.16,2.99-.16,4.55,0,6.57.67,11.97,5.05,13.88,11.43,1.34,4.46,1.29,9.32-.26,13.72ZM777.36,50.95c2.91-8.02.73-19.09-7.86-21.81-3.29-1.05-6.8-1.06-10.11-.07-8.79,2.63-11.05,13.78-8.06,21.96,1.43,3.92,4.5,6.91,8.52,7.97,7.29,1.93,14.82-.63,17.51-8.05Z"></path>
      <path class="cls-4" d="M771.46,52.45h-3.66s-3.24-6.41-3.24-6.41h-3.16s0,6.45,0,6.45l-3.43-.04v-17.64s7.23.02,7.23.02c1.52,0,2.94.58,4.04,1.53,2.21,2.66,1.66,7.04-1.67,8.71l3.9,7.38ZM766.93,40.3c.04-1.53-.91-2.73-2.47-2.75l-3.06-.02v5.41s3.06-.02,3.06-.02c1.5,0,2.43-1.1,2.46-2.62Z"></path>
    </g>
  </g>
  <g>
    <g class="cls-5">
      <path class="cls-4" d="M817.75,98.52c-.36-.22-.76-.39-1.19-.47.2.07.39.2.55.36.22.17.4.09.64.11Z"></path>
      <path class="cls-4" d="M815.37,97.96c-.08,0-.16.01-.23.02-.07.03-.13.05-.19.07.14-.03.28-.07.42-.09Z"></path>
      <path class="cls-4" d="M813.34,98.55c.34-.09.66-.19.97-.31-.29.03-.63.12-.97.31Z"></path>
      <path class="cls-4" d="M814.94,98.29c-.14-.07-.22-.15,0-.24,0,0,0,0,0,0-.22.05-.43.13-.64.2.24-.01.45,0,.63.05Z"></path>
      <path class="cls-4" d="M814.94,98.29c.13.07.33.12.39.17-.11-.06-.24-.12-.39-.17Z"></path>
      <path class="cls-4" d="M814.85,100.4c-.11.09-.23-.47-.5-.27-.69.37-1.19.88-1.85,1.22-.24.27-1.03-.04-1.27.26-.62.54-2.05,2.41-.98,1.67.38-.27.74-.52,1.07-.76.32-.22.63-.44.93-.63.6-.39,1.2-.75,1.88-1.05.26-.15.54-.3.77-.41.21-.11.41-.21.65-.27.46-.14,1.02-.16,1.51.09.25.17.41.43.51.69-.11-.37-.3-.75-.65-1.05-.22-.22-.63-.19-1-.04-.39.15-.7.4-1.05.55Z"></path>
      <path class="cls-4" d="M819.7,106.47c-.06-.19-.17-.57-.17-.57.45-.82.28-1.73.04-2.59-.08.14-.17.27-.26.41.06.49.22.55.33.09-.3,1.04-.38,1.98-.38,2.96.16-.05.35-.03.44-.3Z"></path>
      <path class="cls-4" d="M819.26,107.35c0-.19,0-.39,0-.57-.02,0-.03.01-.05.02.01.19.03.39.04.58l.02-.02Z"></path>
      <path class="cls-4" d="M809.97,100.81c-2.07,1.33-4.02,2.58-5.93,3.8-.08.19-.11.37-.34.44-.2.02-.39.06-.56.13-.28.18-.55.36-.83.54-.09.08-.17.16-.26.24h0c-.11.17-.02.21.13.21.14-.02.28-.03.4-.03-.08,0-.26.03-.4.03-.17.03-.35.08-.53.17-.23.2-.47.4-.75.56.25-.27.51-.45.75-.56.14-.13.28-.26.41-.38.03-.04.07-.09.1-.14-.63.41-1.26.82-1.89,1.24-.13.11-.26.22-.36.31-.4.38-.78.77-1.22.74-.11.07-.22.15-.34.23.03,0,.06,0,.09,0-.06.02-.11.04-.15.05-.47.32-.94.65-1.41.97-.23.31-.45.65-.7.95,0,0-.32,0-.48,0-.03.21-.15.42-.32.62.35-.05.69-.08.96-.14.47,0,.32-.98,1.01-.82-.69-.16-.54.81-1.01.82-.28.07-.62.09-.96.14-.36.41-.97.77-1.58.91.39-.63,1-.82,1.58-.91.17-.2.29-.41.32-.62.16,0,.48,0,.48,0,.25-.3.47-.64.7-.95-.92.63-1.84,1.3-2.77,1.98-3.01,2.19-5.75,4.52-8.35,7.05-.66.62-1.29,1.29-1.94,1.94-.67.71-1.28,1.52-1.79,2.38-.51.87-.94,1.81-1.2,2.88-.13.54-.21,1.09-.19,1.71,0,.31.02.62.1.93.03.16.06.32.1.47l.17.45c.25.66.69,1.22,1.18,1.72.26.23.55.43.83.64.29.17.58.32.88.47,1.23.5,2.44.65,3.65.61,2.41-.11,4.52-.95,6.43-1.89.96-.48,1.83-1,2.71-1.61.47-.31.8-.61,1.21-.91.38-.3.78-.61,1.14-.92,1.48-1.21,2.9-2.46,4.32-3.71,2.84-2.49,5.69-4.97,9.04-7.18,2.54-1.74,6.37-5.82,8.44-7.82,2.17-3.34-.98-3.81-1.21-3.78-3.21.08-3.79,2.24-8.18,4.73,2.9-1.8-.83,2.7-4.1,3.82-2.41.77-4.47,2.59-6.5,4.6-2.02,2.01-4.08,4.25-6.32,5.78-.28.19-.55.39-.82.6-.29.24-.49.36-.76.57-.55.4-1.12.8-1.74,1.16-1.67.8-3.27,1.3-4.39,1.3-.28,0-.53-.02-.77-.06-.12-.02-.17-.05-.26-.05-.07-.03-.1-.07-.17-.07-.07-.02-.07-.02-.08-.02.02-.02-.02,0-.03,0,0,0-.02,0-.03-.01-.02,0,0-.04-.02-.07-.02-.03,0-.16-.01-.25.02-.12.03-.24.05-.37.05-.15.05-.28.12-.44.19-.63.56-1.34,1.01-1.98.11-.17.22-.3.33-.45.04-.06.14-.16.22-.26l.26-.29c.36-.38.7-.77,1.07-1.15.38-.38.76-.76,1.14-1.15.4-.37.8-.74,1.2-1.12,1.7-1.6,2.9-3.36,4.25-4.87,1.06-1.01,2.46-1.75,3.4-2.48,1.48-1.14,2.66-2.26,3.77-3.37-1.35,1.1-2.27,1.97-3.74,3.2-1,.81.25-1.13.84-1.78.22-.32,1.06-.14,1.28-.47.64-.47,1.08-1.1,1.68-1.74.23-.32.53.18.64.03.87-.78,1.2-1.9,1.91-2.19.52-.25.99-.46,1.46-.66.28-.15.56-.3.82-.5.15-.15.3-.31.45-.47-.24-.06-.41-.2-.58-.36.28-.14.71-.27.99-.42-.28.14-.71.27-.99.42.17.15.34.3.58.36,1.1-1.12,2.43-2.39,3.71-3.4-.01-.01-.03-.02-.04-.03-.8.51-1.61.98-2.66,1.23.44-.13.48.04.08.33-.16-.01-.32-.03-.48-.04.64-.6,1.28-1.23,2.2-1.28,0,0,.25-.3.38-.45.28-.07.36.1.48.21.16-.1.31-.2.47-.31-.49-.09-1.78.25-1.78.25Z"></path>
      <path class="cls-4" d="M801.62,106.34c.1-.09.22-.2.36-.31-.53.34-1.06.69-1.59,1.03.44.04.83-.35,1.23-.72Z"></path>
    </g>
    <g class="cls-5">
      <path class="cls-4" d="M836.96,110.6c-.04,1.06-.33,2.2-.6,3.37.17-.58.37-1.14.58-1.7.2-.73.12-1.14.02-1.67Z"></path>
      <path class="cls-4" d="M835.83,117.44c0,.24,0,.49.03.72.03.22.08.42.14.61-.11-.44-.15-.89-.17-1.33Z"></path>
      <path class="cls-4" d="M839.35,123.16c-1-.66-1.81-1.48-2.49-2.41.12.24.28.44.45.65.17.21.34.44.55.64.22.19.45.39.68.59.24.2.53.35.81.53Z"></path>
      <path class="cls-4" d="M836.25,118.81c.01.43-.02.68-.25-.02,0,0,0-.02,0-.03.16.7.44,1.37.86,1.98-.38-.68-.55-1.36-.6-1.93Z"></path>
      <path class="cls-4" d="M836.25,118.81c-.01-.42.03-1.05.08-1.26-.07.36-.11.78-.08,1.26Z"></path>
      <path class="cls-4" d="M838.65,119.44c.28.32-.26.59.55,1.3.96.83,2.07,1.3,3.22,1.63,1.15.33,2.36.5,3.64.67,1.17.04,3.04.79,4.29.71.73-.01,1.75-.06,2.81-.11.53-.02,1.06-.04,1.54-.09.51-.04.99-.08,1.41-.12,1.68-.16,2.44-.33.26-.37-.82-.01-1.6-.03-2.36-.04-.76-.03-1.51-.05-2.24-.06-1.44-.02-2.76-.03-4.02-.11-1.26-.07-2.48-.2-3.67-.44-1.19-.25-2.35-.62-3.38-1.26-.2-.13-.43-.25-.62-.39l-.56-.45c-.32-.34-.69-.66-.88-1-.45-.7-.62-1.59-.58-2.65.04-1.05.27-2.19.48-3.42.19-1.22.41-2.58.09-4.05-.16-.82-.52-1.6-1-2.24-.48-.64-1.05-1.16-1.66-1.58.79.57,1.53,1.31,2.03,2.27.23.49.4,1.01.49,1.55.08.54.08,1.07.04,1.6-.14,1.38-.4,2.81-.54,4.36-.13,1.54-.09,3.12.67,4.27Z"></path>
      <path class="cls-4" d="M818.99,94.65c.05.32.12.8.23,1.2.05.2.09.37.14.5.04.13.07.2.07.2.09,1.46.85,2.92,1.97,3.97.56.52,1.18.98,1.84,1.34.65.38,1.34.7,2.04.96-.36-.26-.71-.54-1.05-.84-1.46-.83-1.72-.83-.5.09-.7-.52-1.38-1.06-1.97-1.68-.58-.62-1.08-1.3-1.45-2.04-.75-1.48-.95-3.15-.87-4.8-.16.2-.37.14-.44,1.11Z"></path>
      <path class="cls-4" d="M819.61,91.61c-.08.64-.15,1.29-.17,1.93.02-.01.04-.04.05-.07,0-.65.07-1.3.14-1.93l-.02.07Z"></path>
      <path class="cls-4" d="M852.6,125.15c1.03.05,2.07.09,3.09.11,1.02.03,2.04.05,3.05.08,2.02.03,4.03,0,6.01-.23,1.97-.21,3.93-.69,5.68-1.62,1.74-.92,3.25-2.35,4.01-4.2.1-.62.1-1.04.21-1.82.13-.6.13-1.24-.03-1.85-.32-1.14-1.05-2.12-1.94-2.86-.33-.23-.67-.46-1.05-.63,0,0-.02,0-.03-.01-.6-.23-.46-.07-.16.19.36.25.64.54.86.79-.14-.16-.55-.55-.86-.79-.44-.3-.95-.61-1.6-.86-.98-.31-2.03-.56-3.11-.76,1.23.13,2.27.41,3.11.76.63.19,1.21.41,1.79.69.17.08.35.14.51.24-2.27-1.39-4.86-1.91-7.4-2.18-.59-.04-1.15-.07-1.6-.08-1.85-.03-3.68-.02-4.78-.39-.44-.05-.89-.08-1.34-.14.08.03.17.05.25.08-.2-.04-.36-.08-.49-.11-.47-.05-.93-.14-1.38-.22-.43-.09-.81-.21-1.18-.41-.75-.37-1.24-1.13-1.36-1.93-.16-.5-.29-1.15-.4-1.76-.11-.63-.22-1.27-.37-1.91,0,0,.01-.23.02-.51,0-.28-.01-.63-.03-.86-.3-.5-.69-1.18-1.24-1.9.46.99.62,1.94.68,2.81,0,.64.21,1.32.39,2.06.18.75.31,1.48.21,2.32.1-.84-.03-1.57-.21-2.32-.18-.74-.4-1.42-.39-2.06-.06-.86-.21-1.82-.68-2.81-1.12-1.51-3.03-3.01-4.84-3.89,2.44.58,4.08,2.26,4.84,3.89.55.72.94,1.4,1.24,1.9.02.23.03.58.03.86,0,.29-.02.51-.02.51.14.64.25,1.29.37,1.91.11.62.24,1.27.4,1.76-.32-1.65-.13-3.71-.89-5.67-.75-1.95-2.31-3.52-4.08-4.54-1.44-.85-3.23-1.31-4.25-1.5-1.19-.24-2.36-.33-3.5-.53-.14-.03-.28-.08-.4-.16-.13-.07-.2-.23-.15-.38.11-.28.36-.48.58-.68.46-.39.94-.74,1.4-1.1.47-.36.92-.72,1.36-1.09.22-.19.43-.38.64-.58.26-.25.56-.57.82-.86,1.07-1.2,1.92-2.49,2.82-3.65.45-.58.9-1.11,1.41-1.6.48-.47.97-.81,1.56-1.06,1.17-.5,2.58-.57,4.01-.49.72.04,1.45.12,2.21.2.76.07,1.53.15,2.3.2,6.15.43,12.39-.07,18.54-1.49,1.53-.37,3.07-.77,4.58-1.26.76-.23,1.52-.51,2.28-.77.39-.15.77-.29,1.15-.46.19-.08.38-.17.58-.26.22-.11.47-.23.69-.35.91-.5,1.77-1.12,2.37-1.93.3-.4.51-.86.63-1.35.09-.5.08-1.01-.06-1.5-.04-.25-.18-.46-.27-.7-.11-.22-.27-.43-.41-.65-.15-.21-.33-.4-.49-.6-.18-.19-.38-.37-.57-.56-.41-.35-.82-.68-1.3-.98-.38-.24-.76-.47-1.14-.67-1.67-.89-3.38-1.5-5.08-2.05-1.76-.53-3.52-.9-5.3-1.14-3.56-.48-7.11-.44-10.58-.12-1.72.16-3.48.4-5.11.66l-.6.1-.36.05-.65.1c-.43.06-.84.11-1.25.08-.2-.01-.41-.05-.59-.14-.18-.09-.31-.29-.29-.51.04-.43.27-.81.48-1.16.22-.35.46-.68.68-.99l.19-.27.32-.49c.24-.39.43-.68.78-1.32,1.25-2.25,1.85-4.78.7-6.78-.53-1.03-1.57-1.68-2.64-1.95-1.08-.28-2.27-.22-3.47.09-.6.14-1.19.41-1.78.66-.3.12-.56.29-.85.44l-.42.23c-.12.07-.2.13-.3.19-.8.49-1.5,1.04-2.18,1.58-1.33,1.09-2.48,2.16-3.62,3.02-.57.42-1.13.79-1.68,1.1-.56.28-1.11.51-1.75.69-1.2.35-2.57.45-4.02.43-1.45-.02-3-.17-4.63-.26-1.61-.09-3.23-.16-4.86-.17-3.26-.03-6.56.11-9.87.61-1.66.24-3.32.57-4.97,1l-1.23.34-1.23.39c-.85.29-1.74.64-2.55,1.05-1.65.8-3.23,1.84-4.69,3.23-.71.73-1.41,1.52-1.98,2.53-.55,1-1.03,2.16-1.13,3.46-.06.32-.03.64-.03.96,0,.32,0,.65.07.96l.04.24.06.29.11.58c.1.35.32.67.47,1.01l.25.5.31.44c.22.27.4.58.66.81.25.24.51.48.77.71.27.2.55.39.84.57,1.14.68,2.31,1.05,3.39,1.27,1.07.2,2.1.3,3.07.32,1.5.04,3.05-.09,4.56-.24,1.53-.13,3.12-.35,4.8-.56,1.67-.22,3.41-.44,5.18-.68.46-.06.92-.12,1.38-.19l.12-.02s0,0,0,0h0s-.01,0-.02,0c-.01,0,0-.03.02-.03,0,0,.01,0,.02,0,0,0,.01,0,0,.02l-.39.39c-.27.26-.55.53-.84.8-1.03.98-2.32,1.92-3.65,3.22-.66.65-1.31,1.41-1.85,2.25-.14.21-.32.52-.47.81-.16.29-.29.58-.41.88-.13.29-.19.6-.27.89-.06.3-.18.59-.19.88-.16,1.59.32,3.01,1.05,4.04.73,1.05,1.66,1.75,2.53,2.25.72.37,1.28.56,1.79.7.5.14.92.2,1.27.24,1.41.12,1.86-.19,1.92-.57.04-.39-.34-.88-.76-1.31-.41-.43-.85-.81-.97-.91-.41-.33-.8-.66-1.14-1-.33-.34-.6-.66-.79-1.02-.43-.68-.47-1.52-.18-2.19.14-.34.34-.64.55-.91.24-.31.55-.67.87-.99.66-.66,1.48-1.29,2.4-2.01.46-.36.95-.74,1.44-1.17.49-.42.97-.84,1.49-1.32.13-.13.27-.26.41-.39.16-.17.34-.34.5-.52.33-.35.66-.72.96-1.11.61-.78,1.14-1.64,1.49-2.55.16-.46.3-.91.34-1.39.05-.48.02-.99-.17-1.49-.18-.5-.54-.93-.94-1.24-.41-.31-.88-.54-1.4-.72-1.03-.36-2.34-.46-3.79-.39-.36.02-.73.04-1.11.07-.3.02-.61.05-.92.07-.25.02-.49.03-.74.05-.25.01-.49.03-.75.04.69-.04,1.27-.07,1.73-.1.33-.02.62-.04.87-.05.28-.01.51-.02.71-.01.78.01.91.09.6.18-.16.05-.43.1-.8.17-.34.06-.78.15-1.31.24-.39.08-.84.17-1.31.24-.5.08-1.05.17-1.65.27-2.38.36-5.45.79-8.59,1.05-1.56.13-3.09.2-4.45.04-1.34-.15-2.51-.57-2.99-1.13-.35-.39-.54-.84-.5-1.1l.03-.07c0-.07,0-.13,0-.19.03-.12.05-.24.06-.36.04-.12.09-.23.11-.34.04-.12.12-.23.16-.35.47-.94,1.71-2.1,3.28-3.02.78-.46,1.64-.88,2.5-1.2.4-.16.95-.32,1.44-.48.51-.15,1.02-.3,1.54-.44,2.09-.54,4.29-.95,6.57-1.19,2.28-.26,4.63-.36,7.02-.37,1.19,0,2.4.02,3.61.07,1.25.06,2.5.12,3.75.17,1.32.05,2.73.05,4.2-.11.74-.08,1.49-.22,2.25-.4.77-.19,1.46-.44,2.22-.74,1.5-.62,2.76-1.49,3.84-2.31,1.09-.83,2.02-1.66,2.9-2.36.87-.71,1.7-1.34,2.49-1.82.09-.05.14-.07.19-.09.05-.02.1-.03.16-.04.11-.02.25.03.27.16.02.12-.04.24-.1.35l-.02.02s0,0-.02.02l-.08.13-.33.52-1.15,1.79c-.47.75-.95,1.5-1.31,2.25-.36.75-.61,1.47-.74,2.14-.13.67-.14,1.31-.04,1.89.1.58.31,1.2.72,1.79.41.58.88.99,1.39,1.31.51.32,1.09.55,1.77.69,1.34.3,3.1.13,4.86-.21l1.31-.24.24-.03.18-.03.35-.06,1.35-.23c1.7-.27,3.38-.48,5.05-.62,3.34-.26,6.62-.2,9.75.36l1.17.23,1.12.27c.37.1.76.23,1.16.35.39.12.77.25,1.15.39.75.27,1.46.56,2.1.87.32.16.62.32.89.49.1.06.04.02.04.02-.01-.01,0,0,0,0h.02c.05.02.11.1.06.16,0,.01-.02.03-.04.04l-.02.02s.03,0-.07.03l-.24.11c-.33.15-.71.31-1.06.45l-1.18.43c-1.6.56-3.25,1.06-4.92,1.49-1.67.42-3.37.76-5.09,1.04-3.44.53-6.97.78-10.53.66-.89-.03-1.79-.07-2.67-.15-.95-.09-1.9-.18-2.86-.26-1.06-.08-2.2-.12-3.46,0-1.26.13-2.67.44-4.03,1.17-.7.39-1.4.9-1.92,1.41-.28.27-.45.44-.68.69-.22.24-.42.48-.61.71-.76.93-1.33,1.81-1.86,2.58-.53.78-1,1.46-1.48,2.04-.12.15-.24.28-.36.42-.02.02-.02.02-.06.06l-.11.11-.23.22c-.16.15-.3.29-.46.44-.64.58-1.31,1.13-1.97,1.68-.65.55-1.29,1.1-1.73,1.63-.44.53-.7,1.02-.87,1.45-.18.44-.26.81-.32,1.19-.03.19-.04.38-.03.61,0,.21.08.56.22.78.26.42.53.62.84.86.3.22.71.45,1.17.67.26.1.53.21.81.3.34.07.63.17,1,.23.74.11,1.53.18,2.29.26,1.08.11,2.28.35,2.93.53.52.14,1.01.32,1.44.52.22.1.41.21.61.32l.63.43c.37.27.7.58.99.9.57.66.94,1.37,1.09,2.05.1.4.16.8.21,1.28.05.53.09,1.04.13,1.53.04.43.09.86.17,1.39.1.61.28,1.32.56,1.91.55,1.22,1.56,2.17,2.74,2.71.57.27,1.25.47,1.79.58l.2.04.16.02.31.04.62.08c.8.09,1.57.14,2.32.17,2.99.12,5.63,0,8.03.28-2.67-.38-5.21-.28-7.98-.42-.69-.03-1.41-.08-2.14-.16-.37-.04-.76-.1-1.15-.15-.39-.05-1.02-.19-1.58-.4-1.12-.41-2.18-1.16-2.86-2.25-.34-.54-.6-1.15-.75-1.81-.17-.74-.22-1.14-.28-1.62-.13-1.2-.1-1.47-.03-1.38.09.11.22.68.43,1.61.06.25.13.52.2.8.1.36.2.73.36,1.09.3.72.78,1.39,1.39,1.89.6.51,1.32.84,1.99,1.03.33.1.69.17.95.21.29.05.47.05.68.08,1.35.09,3.34.87,4.62.8,2.74.14,5.15-.08,7.79.39,1.13.18.82.7,1.35.83.42.12.79.29,1.17.41.15.07.31.13.46.2.14.08.28.15.42.23.54.32.99.72,1.32,1.18.68.92.78,2.11.38,3.01-.3.69-.75,1.28-1.28,1.81-.53.51-1.12.92-1.76,1.26-.8.44-1.67.79-2.64,1.09-.59.22-1.23.42-1.89.57.55.09.79.26,1.01.43-.98.19-2.42.21-3.45.25,1.02-.04,2.47-.05,3.45-.25-.22-.17-.46-.35-1.01-.43-2.4.54-5.2.73-8.04.8-.72.02-1.44.03-2.16.05-.73.02-1.42.03-2.15.02-1.46,0-2.88.04-4.28.02.02.02.05.04.07.06,1.63.06,3.26.08,4.9.23,1.62.1,3.28.27,4.98.47-1.47-.16-1.28-.31.39-.32.43.1.86.2,1.28.29-1.46.09-2.93.14-4.37.1-.72-.02-1.44-.05-2.15-.12-.71-.08-1.41-.18-2.1-.31,0,0-1.26.08-1.88.13-.92-.12-.87-.31-1.06-.47-.63-.03-1.28-.05-1.92-.1.65.22,2.06.47,3.31.65,1.25.17,2.32.31,2.32.31Z"></path>
      <path class="cls-4" d="M869.77,111.39c.22.07.46.14.71.24.25.1.52.22.79.33-1.95-.96-4.09-1.44-6.23-1.68,1.1.41,2.94.55,4.73,1.11Z"></path>
    </g>
  </g>
</svg>