<?xml version="1.0"?>
<svg id="Capa_1" data-name="Capa 1" xmlns="http://www.w3.org/2000/svg" viewBox="0 0 666.66 259.56">
  <defs>
    
  </defs>
  <g>
    <path class="cls-1" d="M42.55,252.59c-11.13-5.64-18.89-11.34-24.47-22.31l-5.51-10.83c-6.6-7.22-12.2-15.51-12.58-25.51l6.43-11.9c1.97-3.64,7.98-9.31,11.94-12.46,8.09-6.43,21.29-7.89,30.83-2.95,18.04,9.34,10.64,35.77,17.66,39.45,11.18,5.86,20.07-.34,28.04-6.95,13.06-10.83,20.81-27.29,24.29-44.14,1.28-6.21-2.14-17.91-9.63-18.24l-29.45-1.28c-2.97-.13-9.26-3.62-12.18-4.22l-20.46-4.2c-20.81-4.27-37.34-11.09-38.09-33.5-.27-7.98,2.27-21.97,6.5-29.91,10.16-19.06,24.87-34.74,44.01-43.07,29.75-12.95,42.97-10.52,72.28-10.08l16.6.25c11.4,2.09,19.05,5.67,28.26,13.14,5.05,22.65-7.28,42.27-29.47,47.1-25.78,5.61-35.75-19.13-62.58-17.21-5.6.4-14.46,4.5-17.87,8.17-5.52,5.92-7.96,17.18-3.62,23.17l6.88,9.48,22.41,8.26c3.49,1.29,11.27,2.02,15.65,2.46,8.17.81,15.18,3.09,22.45,5.12,10.37,2.89,16.4,5.89,20.51,16.2,2.57,6.44,3.89,14.04,1.52,21.71-3.41,11.01-5.36,23.26-10.08,33.58-8.74,19.13-23.7,39.87-39.06,54.3-4.38,4.11-10.01,7.35-14.64,10.81-8.07,6.02-15.94,8.18-25.97,9.74-8.3,1.29-12.81-.23-20.62-4.18Z"></path>
    <path class="cls-1" d="M366.35,201.05c12.55-12.51,27.88-22.04,33.7-38.38l6.42-18.05,5.23-16.57,3.49-22.56c4.85-9.87,4.89-19.92,3.1-30.62-2.19-13.17.12-27.43,11.31-35.88,11.39-8.6,40.97,8.41,44.09,41.36.99,10.43,2.49,20.73,5.95,30.22l9.7,26.59c2.35.74,12.59.1,14.6-3.47l11.63-20.64c9.27-16.46,12.43-25.44,14.09-44.31.79-8.94,4.41-17.39,7.7-25.62,2.86-7.16,8.93-9.87,14.67-14.18,14.27-10.74,34.1-11.49,44.33,4.04,4.36,8.76,6.51,18.1.31,25.72-.36,9.28-4.82,15.98-9.38,23.18-4.51,7.13-9.63,14.21-16.68,19.3-10.22,7.38-19.05,15.03-25.73,26.25-9.13,15.34-19.76,32.18-21.7,49.89l-2.52,23c-1.13,10.3-15.42,23.6-31.99,18.78-12.49-3.63-15.64-23.64-15.13-40.17.36-11.72-6.7-23.64-10.79-34.74-1.42-3.86-3.27-8.06-5.37-10.5s-10.01-2.7-12.19-.8l-7.29,21.44c-5.87,17.27-9.5,32.93-9.75,51.04-.3,21.7-19.74,41.74-42.51,40.84-6.43-.25-16.51-6.93-19.55-12.19-5.26-9.1-3.96-23.36.24-32.95Z"></path>
    <path class="cls-1" d="M359.55,160.18c-7.15-6.82-15.52-4.35-23.49-2.62-13.33,2.88-27.17,7.93-33,21.95l-4.1,16.68c2.42,21.08-11.83,39.18-33.63,40.22-8.1,1.76-15.13-2.76-21.17-9.8-3.03-4.25-6.83-14.87-2.71-21.03l11.48-17.2,17.41-27.09c4.25-6.61-3.21-17.71-.57-23.63,1.06-2.38,5.25-5.36,8.12-6.54l17.85-7.4,23.83-33.31c8.67-12.12,17.43-25.34,24.21-38.4,5.51-10.63,10.62-16.82,24.58-17.19,4.94-.13,14.6-3.15,19.24.35,5.75,4.34,7.68,10.28,6.57,16.17,4.09,11.74,2.54,23.82-1.52,35.84,1.48,13.24,4.02,26.71,2.62,39.86-.94,8.85-1.1,15.96-.21,24.85,1.08,10.9.15,24.36,6.38,33.32l13.39,19.24c5.23,7.52,1.48,24.79-7.98,33.19-9.84,8.73-20.81,10.92-32.4,5.48-19.72-9.25-17.18-25.75-15.92-46.72l1-16.65c.35-5.78,2-14.77.03-19.57ZM361.65,115.69l.86-13.14c.37-5.69.6-8.61-6.22-10.52-2.82-.79-6.51,2.77-8.5,6.24l-12.58,21.98c10.05,4.04,19.81,2.07,26.44-4.56Z"></path>
    <path class="cls-1" d="M210.43,223.3c-2.01,7.79-4.33,12.36-4.29,19.66.03,5.27-7.24,13.58-12.46,15.82-6.56,2.82-15.99-2.58-17.33-7.42-7.2-25.87,5.74-40.09,8.38-65.56l1.76-16.94c.6-5.8.49-12.33,1.47-17.94l1.47-8.34c2.33-6.77,4.15-11.22,1.58-17.29s-7.41-7.52-15.51-8.77c-5.85-.91-13.28-8.05-14.24-13.59-3.34-19.17,8.03-34.13,27.27-36.5,10.02-1.24,22.54-1.26,29.36-11.7,1.24-7.1.28-17.86.44-25.55,3.49-14.14,9.76-21.59,23.4-28.63,2.72-1.4,9.53.26,12.55,1.22,13.78,4.37,20.31,16.87,16.15,30.37l-6.4,20.77c-1.74,5.65,6.18,10.59,10.9,12.2l11.75,4c8.51,2.9,14.77,6.67,15.26,15.49.65,11.82-13.11,18.29-27.04,19.08l-15.73.89c-9.6.55-16.89,3.68-23.52,10.74-1.61,1.71-5.32,5.42-5.71,7.59-2.42,13.29-6,26.19-7.42,39.04l-2.46,22.26c-.53,4.84-1.6,8.07-2.85,12.93l-6.74,26.17Z"></path>
  </g>
  <g id="_5WmPQz" data-name="5WmPQz">
    <g>
      <path class="cls-1" d="M665.44,51.18c-2.94,8.34-11.26,12.16-19.85,10.45-5.79-1.15-10.36-5.26-12.19-10.92-1.41-4.37-1.41-9.1-.02-13.48,1.99-6.27,7.39-10.56,13.89-11.2,1.56-.16,2.99-.16,4.55,0,6.57.67,11.97,5.05,13.88,11.43,1.34,4.46,1.29,9.32-.26,13.72ZM662.53,50.95c2.91-8.02.73-19.09-7.86-21.81-3.29-1.05-6.8-1.06-10.11-.07-8.79,2.63-11.05,13.78-8.06,21.96,1.43,3.92,4.5,6.91,8.52,7.97,7.29,1.93,14.82-.63,17.51-8.05Z"></path>
      <path class="cls-1" d="M656.63,52.45h-3.66s-3.24-6.41-3.24-6.41h-3.16s0,6.45,0,6.45l-3.43-.04v-17.64s7.23.02,7.23.02c1.52,0,2.94.58,4.04,1.53,2.21,2.66,1.66,7.04-1.67,8.71l3.9,7.38ZM652.09,40.3c.04-1.53-.91-2.73-2.47-2.75l-3.06-.02v5.41s3.06-.02,3.06-.02c1.5,0,2.43-1.1,2.46-2.62Z"></path>
    </g>
  </g>
</svg>